<?xml version="1.0" standalone="no"?>
<!DOCTYPE svg PUBLIC "-//W3C//DTD SVG 20010904//EN"
 "http://www.w3.org/TR/2001/REC-SVG-20010904/DTD/svg10.dtd">
<svg version="1.0" xmlns="http://www.w3.org/2000/svg"
 width="256.000000pt" height="256.000000pt" viewBox="0 0 256.000000 256.000000"
 preserveAspectRatio="xMidYMid meet">
<metadata>
Created by potrace 1.14, written by Peter Selinger 2001-2017
</metadata>
<g transform="translate(0.000000,256.000000) scale(0.100000,-0.100000)"
fill="#000000" stroke="none">
<path d="M20 1280 l0 -340 246 0 245 0 -3 53 -3 52 -172 3 -173 2 0 285 0 285
-70 0 -70 0 0 -340z"/>
<path d="M655 1607 c-3 -7 -4 -158 -3 -337 l3 -325 63 -3 62 -3 0 341 0 340
-60 0 c-40 0 -62 -4 -65 -13z"/>
<path d="M1827 1613 c-9 -8 -9 -636 -1 -657 5 -12 21 -16 65 -16 l59 0 0 240
c0 186 3 240 13 239 10 0 395 -433 417 -469 4 -7 36 -10 86 -8 l79 3 0 335 0
335 -70 0 -70 0 0 -243 c0 -177 -3 -242 -11 -240 -10 2 -286 313 -406 456 -25
30 -31 32 -91 32 -35 0 -67 -3 -70 -7z"/>
<path d="M1268 1549 c-33 -52 -62 -100 -272 -441 -53 -87 -96 -160 -96 -163 0
-3 180 -5 400 -5 225 0 400 4 400 9 0 5 -50 91 -112 192 -61 101 -147 242
-190 314 -43 71 -83 134 -87 138 -5 5 -24 -15 -43 -44z m146 -321 c53 -92 96
-171 96 -177 0 -8 -68 -11 -210 -11 -115 0 -210 2 -210 5 0 4 162 287 197 344
8 13 18 19 23 15 4 -5 51 -84 104 -176z"/>
</g>
</svg>
